<svg xmlns="http://www.w3.org/2000/svg" width="347.191" height="413.137" viewBox="0 0 347.191 413.137">
  <g id="android-icon" transform="translate(-32.973 0)">
    <path id="Path_1" data-name="Path 1" d="M311.358,136.4H101.779a8.441,8.441,0,0,0-8.441,8.441V320.585a8.441,8.441,0,0,0,8.441,8.441h37.363v59.228a24.883,24.883,0,0,0,24.883,24.883h0a24.883,24.883,0,0,0,24.883-24.883V329.026h34.8v59.228a24.883,24.883,0,0,0,24.883,24.883h0a24.883,24.883,0,0,0,24.883-24.883V329.026h37.882a8.441,8.441,0,0,0,8.441-8.441V144.836A8.442,8.442,0,0,0,311.358,136.4Z" fill="#fff"/>
    <path id="Path_2" data-name="Path 2" d="M57.856,136.354h0a24.883,24.883,0,0,0-24.883,24.883V262.3a24.883,24.883,0,0,0,24.883,24.883h0A24.883,24.883,0,0,0,82.739,262.3V161.237A24.884,24.884,0,0,0,57.856,136.354Z" fill="#fff"/>
    <path id="Path_3" data-name="Path 3" d="M355.281,136.354h0A24.883,24.883,0,0,0,330.4,161.237V262.3a24.883,24.883,0,0,0,24.883,24.883h0A24.883,24.883,0,0,0,380.164,262.3V161.237A24.883,24.883,0,0,0,355.281,136.354Z" fill="#fff"/>
    <path id="Path_4" data-name="Path 4" d="M103.475,124.069H309.167a8.454,8.454,0,0,0,8.266-10.195,113.7,113.7,0,0,0-55.465-75.543L279.552,6.6a4.447,4.447,0,0,0-7.78-4.311L254.055,34.259a113.8,113.8,0,0,0-95.469,0L140.869,2.292A4.447,4.447,0,1,0,133.09,6.6L150.674,38.33a113.7,113.7,0,0,0-55.465,75.544A8.453,8.453,0,0,0,103.475,124.069ZM267.7,76.786a9.565,9.565,0,1,1-9.565-9.565A9.565,9.565,0,0,1,267.7,76.786ZM154.508,67.221a9.565,9.565,0,1,1-9.565,9.565A9.565,9.565,0,0,1,154.508,67.221Z" fill="#fff"/>
  </g>
</svg>
